<svg xmlns="http://www.w3.org/2000/svg" viewBox="0 0 208 208"><defs><style>.cls-1{fill:#fff;}</style></defs><title>Asset 1</title><g id="Layer_2" data-name="Layer 2"><g id="Text_Raw" data-name="Text Raw"><rect width="208" height="208"/><path class="cls-1" d="M12.43,34h23v7.09H27.86V71.84H19.77V41.11H12.43Z"/><path class="cls-1" d="M36.53,34h8.1V49.29h8.84V34h8.1V71.84h-8.1V56.38H44.63V71.84h-8.1Z"/><path class="cls-1" d="M73.37,34h8.14L92,71.84H83.76L81.92,64H71.55l-1.81,7.81H62.31Zm7,23.52L76.68,42.05,73.11,57.54Z"/><path class="cls-1" d="M89.33,34h23v7.09h-7.53V71.84H96.66V41.11H89.33Z"/><path class="cls-1" d="M23.06,85.09h8.15l10.52,37.82H33.45l-1.84-7.81H21.24l-1.8,7.81H12Zm7,23.52L26.37,93.12,22.8,108.61Z"/><path class="cls-1" d="M43.14,85.09h10.6a26.43,26.43,0,0,1,7.49.83,8.17,8.17,0,0,1,4.46,3.76,13.46,13.46,0,0,1,1.81,7.24A14.33,14.33,0,0,1,66,103.79a8.68,8.68,0,0,1-4,3.92c-1.72.81-4.35,1.21-7.91,1.21H51.24v14h-8.1Zm8.1,6.12v11.22h2.5c2.22,0,3.64-.52,4.28-1.58a7.81,7.81,0,0,0,1-4.11,7.1,7.1,0,0,0-.74-3.46,3.54,3.54,0,0,0-1.73-1.69,8.07,8.07,0,0,0-2.77-.38Z"/><path class="cls-1" d="M69.73,85.09h10.6a26.35,26.35,0,0,1,7.48.83,8.23,8.23,0,0,1,4.47,3.76,13.55,13.55,0,0,1,1.81,7.24,14.45,14.45,0,0,1-1.46,6.87,8.73,8.73,0,0,1-4,3.92q-2.58,1.22-7.92,1.21H77.82v14H69.73Zm8.09,6.12v11.22h2.51c2.21,0,3.64-.52,4.27-1.58a7.81,7.81,0,0,0,1-4.11,7.1,7.1,0,0,0-.74-3.46,3.5,3.5,0,0,0-1.73-1.69,8,8,0,0,0-2.76-.38Z"/><path class="cls-1" d="M102.81,85.09H111l10.52,37.82H113.2l-1.83-7.81H101l-1.81,7.81H91.75Zm7,23.52-3.72-15.49-3.57,15.49Z"/><path class="cls-1" d="M122.9,85.09h11.57a31.68,31.68,0,0,1,5.16.32,8.35,8.35,0,0,1,3.63,1.72A9.24,9.24,0,0,1,146.14,91a13.74,13.74,0,0,1,1,5.44q0,7.1-5.17,10l6.77,16.54H140L135,108h-4v15H122.9ZM131,91.21v10.62h3.56q4.75,0,4.75-5.46a6.14,6.14,0,0,0-.7-3.09A3.85,3.85,0,0,0,137,91.64a6.87,6.87,0,0,0-2.73-.43Z"/><path class="cls-1" d="M151.34,85.09h22.39v6.48H159.44v8.79h11.11v6.48H159.44v9.31h14.29v6.76H151.34Z"/><path class="cls-1" d="M176,85.09h8.09v30.73H196v7.09H176Z"/><path class="cls-1" d="M16.56,136.16H29.13a23.26,23.26,0,0,1,6.67.72A7,7,0,0,1,39.58,140a11.21,11.21,0,0,1,1.52,6.07q0,6.34-5.26,8.14,6.27,2.28,6.26,9.28a10.86,10.86,0,0,1-1.7,6.22,8.25,8.25,0,0,1-4.19,3.39,23.18,23.18,0,0,1-7.08.84H16.56Zm7.77,15.27h2.61q3.91,0,4.93-1.45a5.58,5.58,0,0,0,1-3.29,5,5,0,0,0-1-3.06c-.68-.9-2.12-1.35-4.33-1.35H24.33Zm0,16.07h4c3.72,0,5.59-1.65,5.59-4.95,0-1.83-.47-3.13-1.39-3.87a6.54,6.54,0,0,0-4.2-1.13h-4Z"/><path class="cls-1" d="M46,136.16H57.52a31.91,31.91,0,0,1,5.17.32,8.37,8.37,0,0,1,3.62,1.72A9.24,9.24,0,0,1,69.19,142a13.74,13.74,0,0,1,1,5.44q0,7.09-5.18,10L71.82,174H63l-4.93-15H54v15H46ZM54,142.28V152.9H57.6q4.76,0,4.75-5.46a6.14,6.14,0,0,0-.7-3.09A3.83,3.83,0,0,0,60,142.71a6.92,6.92,0,0,0-2.74-.43Z"/><path class="cls-1" d="M80.89,136.16H89L99.56,174H91.28l-1.83-7.81H79.08L77.27,174H69.84Zm7,23.52L84.2,144.19l-3.56,15.49Z"/><path class="cls-1" d="M100.68,136.16h9l9.47,23.5v-23.5h6.26V174h-7.23l-11.22-27.37V174h-6.26Z"/><path class="cls-1" d="M130.37,136.16h8.71a22.87,22.87,0,0,1,9.21,1.57A11.72,11.72,0,0,1,154,143.5q2.13,4.22,2.13,11.39a29.16,29.16,0,0,1-1.29,9.05,16.88,16.88,0,0,1-3.4,6.22,10.41,10.41,0,0,1-4.75,3,23.7,23.7,0,0,1-6.61.78h-9.68Zm8.09,6.48V167.5h1.38a7.37,7.37,0,0,0,4.36-1.11,7.57,7.57,0,0,0,2.46-3.87,26.68,26.68,0,0,0,.92-8,21.19,21.19,0,0,0-1-7.43,6.83,6.83,0,0,0-2.54-3.54,8,8,0,0,0-4.18-.93Z"/><path class="cls-1" d="M161.66,165.61h7.52V174h-7.52Z"/><path class="cls-1" d="M161,135.92h8.17v2.53h-2.67v10.93h-2.88V138.45H161Z"/><path class="cls-1" d="M170.78,135.92H175l1.85,8.31,2.08-8.31H183v13.46h-2.7V138.11l-2.67,11.27h-2.1l-2.45-11.27v11.27h-2.34Z"/></g></g></svg>